<svg xmlns="http://www.w3.org/2000/svg" xmlns:xlink="http://www.w3.org/1999/xlink" width="171" height="49" viewBox="0 0 171 49">
    <defs>
        <path id="a" d="M0 28.09h116.221V.693H0z"/>
    </defs>
    <g fill="none" fill-rule="evenodd">
        <rect width="170.552" height="48.197" fill="#2F4662" rx="24.099"/>
        <g transform="translate(27.088 10.365)">
            <path fill="#FFF" d="M37.568 4.18c0 .841-.25 1.51-.748 2.01-.567.594-1.304.891-2.211.891-.869 0-1.608-.301-2.215-.904-.61-.602-.912-1.35-.912-2.24 0-.892.303-1.638.912-2.241C33 1.094 33.74.793 34.609.793c.43 0 .844.084 1.235.251.392.169.706.393.942.673l-.53.53c-.398-.476-.947-.715-1.647-.715a2.29 2.29 0 0 0-1.644.668c-.463.447-.694 1.025-.694 1.737 0 .711.231 1.29.694 1.735.462.447 1.01.669 1.644.669.672 0 1.232-.224 1.681-.673.291-.291.46-.697.504-1.218h-2.185v-.724h2.916c.028.158.043.308.043.455"/>
            <path stroke="#FFF" stroke-width=".5" d="M37.568 4.18c0 .841-.25 1.51-.748 2.01-.567.594-1.304.891-2.211.891-.869 0-1.608-.301-2.215-.904-.61-.602-.912-1.35-.912-2.24 0-.892.303-1.638.912-2.241C33 1.094 33.74.793 34.609.793c.43 0 .844.084 1.235.251.392.169.706.393.942.673l-.53.53c-.398-.476-.947-.715-1.647-.715a2.29 2.29 0 0 0-1.644.668c-.463.447-.694 1.025-.694 1.737 0 .711.231 1.29.694 1.735.462.447 1.01.669 1.644.669.672 0 1.232-.224 1.681-.673.291-.291.46-.697.504-1.218h-2.185v-.724h2.916c.028.158.043.308.043.455z"/>
            <path fill="#FFF" d="M42.192 1.667H39.45v1.908h2.47v.723h-2.47v1.908h2.74v.74h-3.514V.928h3.515z"/>
            <path stroke="#FFF" stroke-width=".5" d="M42.192 1.667H39.45v1.908h2.47v.723h-2.47v1.908h2.74v.74h-3.514V.928h3.515z"/>
            <path fill="#FFF" d="M45.453 6.946h-.773v-5.28h-1.682v-.74h4.137v.74h-1.682z"/>
            <path stroke="#FFF" stroke-width=".5" d="M45.453 6.946h-.773v-5.28h-1.682v-.74h4.137v.74h-1.682z"/>
            <mask id="b" fill="#fff">
                <use xlink:href="#a"/>
            </mask>
            <path fill="#FFF" d="M50.127 6.946h.774V.927h-.774z" mask="url(#b)"/>
            <path stroke="#FFF" stroke-width=".5" d="M50.127 6.946h.774V.927h-.774z" mask="url(#b)"/>
            <path fill="#FFF" d="M54.332 6.946h-.774v-5.28h-1.681v-.74h4.136v.74h-1.681z" mask="url(#b)"/>
            <path stroke="#FFF" stroke-width=".5" d="M54.332 6.946h-.774v-5.28h-1.681v-.74h4.136v.74h-1.681z" mask="url(#b)"/>
            <path fill="#FFF" d="M60 5.664c.446.452.991.677 1.636.677a2.21 2.21 0 0 0 1.636-.677c.445-.451.669-1.027.669-1.727 0-.7-.224-1.277-.67-1.728a2.21 2.21 0 0 0-1.635-.677c-.645 0-1.19.226-1.635.677-.444.45-.668 1.028-.668 1.728s.224 1.276.668 1.727m3.842.504c-.592.609-1.327.913-2.207.913-.88 0-1.615-.304-2.206-.913-.592-.608-.887-1.351-.887-2.231 0-.88.295-1.624.887-2.232.591-.608 1.326-.912 2.206-.912.875 0 1.608.305 2.203.916.594.61.891 1.353.891 2.228 0 .88-.296 1.623-.887 2.231" mask="url(#b)"/>
            <path stroke="#FFF" stroke-width=".5" d="M60 5.664c.446.452.991.677 1.636.677a2.21 2.21 0 0 0 1.636-.677c.445-.451.669-1.027.669-1.727 0-.7-.224-1.277-.67-1.728a2.21 2.21 0 0 0-1.635-.677c-.645 0-1.19.226-1.635.677-.444.45-.668 1.028-.668 1.728s.224 1.276.668 1.727zm3.843.504c-.592.609-1.327.913-2.207.913-.88 0-1.615-.304-2.206-.913-.592-.608-.887-1.351-.887-2.231 0-.88.295-1.624.887-2.232.591-.608 1.326-.912 2.206-.912.875 0 1.608.305 2.203.916.594.61.891 1.353.891 2.228 0 .88-.296 1.623-.887 2.231z" mask="url(#b)"/>
            <path fill="#FFF" d="M65.816 6.946V.926h.94l2.926 4.683h.034l-.034-1.16V.927h.775v6.02h-.808l-3.06-4.91h-.034l.034 1.16v3.75z" mask="url(#b)"/>
            <path stroke="#FFF" stroke-width=".5" d="M65.816 6.946V.926h.94l2.926 4.683h.034l-.034-1.16V.927h.775v6.02h-.808l-3.06-4.91h-.034l.034 1.16v3.75z" mask="url(#b)"/>
            <path fill="#FFF" d="M97.279 24.002h1.871V11.46h-1.871v12.542zm16.862-8.024l-2.146 5.437h-.066l-2.226-5.437h-2.016l3.34 7.6-1.905 4.227h1.953l5.147-11.827h-2.081zm-10.618 6.6c-.613 0-1.468-.308-1.468-1.066 0-.967 1.065-1.34 1.985-1.34.822 0 1.21.179 1.71.42a2.268 2.268 0 0 1-2.227 1.985zm.226-6.875c-1.355 0-2.76.598-3.34 1.92l1.661.694c.357-.694 1.018-.92 1.711-.92.968 0 1.953.581 1.968 1.614v.129c-.339-.194-1.064-.484-1.952-.484-1.79 0-3.615.985-3.615 2.824 0 1.678 1.47 2.76 3.115 2.76 1.258 0 1.953-.565 2.388-1.227h.064v.968h1.808v-4.809c0-2.226-1.662-3.47-3.808-3.47zM92.18 17.505h-2.662v-4.3h2.662c1.399 0 2.194 1.159 2.194 2.15 0 .972-.795 2.15-2.194 2.15zm-.049-6.046h-4.485v12.543h1.872V19.25h2.613c2.075 0 4.116-1.502 4.116-3.895s-2.041-3.896-4.116-3.896zm-24.46 11.12c-1.293 0-2.376-1.082-2.376-2.57 0-1.503 1.083-2.602 2.376-2.602 1.277 0 2.28 1.099 2.28 2.603 0 1.487-1.003 2.57-2.28 2.57zm2.15-5.899h-.065c-.42-.5-1.228-.954-2.246-.954-2.134 0-4.09 1.876-4.09 4.284 0 2.392 1.956 4.25 4.09 4.25 1.018 0 1.825-.452 2.246-.97h.065v.614c0 1.634-.873 2.505-2.28 2.505-1.146 0-1.857-.823-2.148-1.518l-1.633.679c.469 1.13 1.713 2.52 3.782 2.52 2.199 0 4.057-1.292 4.057-4.444v-7.661H69.82v.695zm3.071 7.322h1.874V11.46h-1.874v12.542zm4.638-4.138c-.047-1.649 1.278-2.489 2.231-2.489.744 0 1.374.372 1.584.905l-3.815 1.584zm5.819-1.422c-.355-.953-1.438-2.716-3.652-2.716-2.2 0-4.025 1.73-4.025 4.268 0 2.391 1.81 4.267 4.235 4.267 1.955 0 3.087-1.196 3.555-1.892l-1.455-.97c-.484.712-1.146 1.18-2.1 1.18-.954 0-1.633-.436-2.069-1.293l5.705-2.36-.194-.484zm-45.455-1.406v1.81h4.332c-.13 1.018-.469 1.762-.986 2.278-.63.631-1.617 1.327-3.346 1.327-2.667 0-4.752-2.15-4.752-4.817 0-2.667 2.085-4.818 4.752-4.818 1.438 0 2.489.566 3.264 1.295l1.277-1.277c-1.082-1.035-2.52-1.827-4.541-1.827-3.653 0-6.724 2.974-6.724 6.627 0 3.652 3.07 6.627 6.724 6.627 1.971 0 3.459-.648 4.622-1.86 1.197-1.195 1.568-2.876 1.568-4.234 0-.42-.032-.808-.097-1.13h-6.093zm11.115 5.543c-1.294 0-2.41-1.066-2.41-2.585 0-1.536 1.116-2.587 2.41-2.587 1.293 0 2.407 1.05 2.407 2.587 0 1.519-1.114 2.585-2.407 2.585zm0-6.853c-2.36 0-4.283 1.795-4.283 4.268 0 2.457 1.923 4.267 4.283 4.267 2.36 0 4.283-1.81 4.283-4.267 0-2.473-1.924-4.268-4.283-4.268zm9.343 6.853c-1.292 0-2.408-1.066-2.408-2.585 0-1.536 1.116-2.587 2.408-2.587 1.293 0 2.409 1.05 2.409 2.587 0 1.519-1.116 2.585-2.41 2.585zm0-6.853c-2.36 0-4.283 1.795-4.283 4.268 0 2.457 1.923 4.267 4.283 4.267 2.36 0 4.284-1.81 4.284-4.267 0-2.473-1.923-4.268-4.284-4.268z" mask="url(#b)"/>
        </g>
        <path fill="#00D9FF" d="M27.552 11.456c-.292.308-.464.788-.464 1.41v22.186c0 .622.172 1.1.464 1.41l.073.073 12.43-12.43v-.293l-12.43-12.43-.073.074z"/>
        <path fill="#FFCA00" d="M40.056 23.812v.294l4.142 4.144.095-.052 4.908-2.79c1.403-.796 1.403-2.1 0-2.897l-4.908-2.79-.094-.052-4.143 4.143z"/>
        <path fill="#F82E45" d="M27.552 36.462c.241.256.565.394.941.4h.042c.334-.006.708-.114 1.102-.338l14.656-8.327-4.237-4.238-12.504 12.503z"/>
        <path fill="#00F271" d="M27.552 11.456l12.504 12.503 4.237-4.238-14.656-8.327c-.403-.229-.786-.337-1.125-.337-.384 0-.715.14-.96.399"/>
    </g>
</svg>
