<svg xmlns="http://www.w3.org/2000/svg" width="171" height="49" viewBox="0 0 171 49">
    <g fill="none" fill-rule="evenodd">
        <rect width="170.552" height="48.156" fill="#2F4662" rx="24.078"/>
        <g fill="#FFF" fill-rule="nonzero">
            <path d="M49.7 23.52c.027-1.935 1.084-3.722 2.803-4.736-1.09-1.491-2.848-2.403-4.746-2.46-1.997-.201-3.933 1.146-4.95 1.146-1.038 0-2.605-1.126-4.292-1.093-2.22.069-4.239 1.25-5.319 3.111-2.3 3.819-.584 9.43 1.619 12.517 1.102 1.512 2.39 3.2 4.076 3.14 1.65-.065 2.265-1.008 4.256-1.008 1.973 0 2.551 1.008 4.27.97 1.77-.027 2.886-1.518 3.95-3.044a12.3 12.3 0 0 0 1.805-3.526c-2.102-.853-3.469-2.828-3.471-5.017z"/>
            <path d="M45.493 14.708c.977-1.016 1.458-2.321 1.342-3.639-1.493.136-2.872.753-3.862 1.73-.977.964-1.473 2.224-1.377 3.504 1.513.014 2.95-.574 3.897-1.595zM68.06 30.619h-4.728l-1.135 3.525h-2.002L64.673 21.1h2.08l4.478 13.043h-2.037l-1.134-3.525zm-4.238-1.627h3.747l-1.847-5.721h-.052l-1.848 5.72zM82.266 30.08c0 3.021-1.594 4.962-4 4.962a3.24 3.24 0 0 1-3.016-1.7h-.045v4.815h-1.968V25.218h1.905v1.617h.036a3.39 3.39 0 0 1 3.052-1.719c2.433 0 4.036 1.95 4.036 4.964zm-2.022 0c0-1.969-1.003-3.263-2.533-3.263-1.503 0-2.515 1.322-2.515 3.263 0 1.959 1.012 3.27 2.515 3.27 1.53 0 2.533-1.284 2.533-3.27zM92.299 30.08c0 3.021-1.594 4.962-4 4.962a3.24 3.24 0 0 1-3.016-1.7h-.046v4.815H83.27V25.218h1.904v1.617h.036a3.39 3.39 0 0 1 3.052-1.719c2.433 0 4.037 1.95 4.037 4.964zm-2.023 0c0-1.969-1.002-3.263-2.533-3.263-1.503 0-2.514 1.322-2.514 3.263 0 1.959 1.011 3.27 2.514 3.27 1.53 0 2.533-1.284 2.533-3.27zM98.817 31.42c.145 1.252 1.404 2.073 3.126 2.073 1.65 0 2.836-.821 2.836-1.95 0-.98-.716-1.566-2.41-1.968l-1.695-.394c-2.401-.56-3.516-1.644-3.516-3.403 0-2.177 1.966-3.673 4.758-3.673 2.763 0 4.657 1.496 4.721 3.673h-1.975c-.119-1.26-1.197-2.02-2.774-2.02-1.576 0-2.655.77-2.655 1.89 0 .892.69 1.417 2.375 1.819l1.44.341c2.683.612 3.798 1.653 3.798 3.499 0 2.361-1.949 3.84-5.048 3.84-2.9 0-4.858-1.444-4.985-3.727h2.004zM110.603 23.108v2.293h1.76v1.575h-1.76v5.342c0 .83.353 1.216 1.127 1.216.209-.003.417-.019.625-.046v1.566a4.993 4.993 0 0 1-1.056.092c-1.874 0-2.605-.737-2.605-2.616v-5.554h-1.346v-1.575h1.346v-2.293h1.91zM113.367 30.13c0-3.08 1.764-5.016 4.514-5.016 2.76 0 4.515 1.936 4.515 5.017 0 3.089-1.746 5.016-4.515 5.016-2.768 0-4.514-1.927-4.514-5.016zm7.039 0c0-2.112-.942-3.36-2.525-3.36s-2.523 1.257-2.523 3.36c0 2.122.94 3.36 2.523 3.36 1.583 0 2.525-1.238 2.525-3.36zM124.403 25.22h1.92v1.69h.047a2.344 2.344 0 0 1 2.36-1.794c.231 0 .463.025.689.076v1.906a2.784 2.784 0 0 0-.905-.123 2.017 2.017 0 0 0-1.568.654 2.069 2.069 0 0 0-.53 1.63v5.888h-2.013V25.22zM138.335 32.15c-.273 1.777-2.02 2.997-4.256 2.997-2.875 0-4.66-1.908-4.66-4.97 0-3.07 1.794-5.063 4.575-5.063 2.735 0 4.454 1.861 4.454 4.83v.688h-6.98v.122c-.066.729.188 1.45.697 1.98.508.531 1.223.82 1.961.793a2.238 2.238 0 0 0 2.283-1.377h1.926zm-6.858-2.922h4.941a2.342 2.342 0 0 0-.664-1.767 2.389 2.389 0 0 0-1.76-.718 2.515 2.515 0 0 0-1.781.723 2.467 2.467 0 0 0-.736 1.762zM64.37 12.08a2.662 2.662 0 0 1 2.826 2.988c0 1.92-1.036 3.024-2.825 3.024H62.2v-6.013h2.17zm-1.236 5.161h1.132a1.887 1.887 0 0 0 1.981-2.162 1.897 1.897 0 0 0-1.98-2.15h-1.133v4.312zM68.23 15.581c-.072-.865.292-1.703.94-2.162a1.799 1.799 0 0 1 2.115 0c.648.459 1.012 1.297.94 2.162.073.867-.29 1.707-.939 2.166a1.8 1.8 0 0 1-2.118 0c-.648-.46-1.012-1.299-.938-2.166zm3.135 0c0-1.046-.413-1.659-1.136-1.659-.727 0-1.135.613-1.135 1.66 0 1.055.408 1.662 1.135 1.662.723 0 1.136-.611 1.136-1.663zM78.064 18.092h-.89l-.897-3.695h-.068l-.894 3.695h-.88l-1.198-5.016h.87l.778 3.827h.064l.893-3.827h.822l.893 3.827h.068l.774-3.827h.858zM80.26 13.175h.894v.781h.07c.24-.575.805-.926 1.404-.876.463-.036.918.15 1.235.506.317.355.461.842.393 1.323v3.183h-.928v-2.94c0-.79-.329-1.182-1.016-1.182a1.056 1.056 0 0 0-.836.353 1.16 1.16 0 0 0-.287.893v2.876h-.93v-4.917zM86.28 11.069h.89v7.023h-.89zM88.295 15.582c-.072-.866.292-1.704.94-2.163a1.799 1.799 0 0 1 2.115 0c.648.459 1.012 1.297.94 2.163.073.866-.29 1.706-.939 2.165-.648.46-1.47.46-2.118 0-.648-.46-1.012-1.299-.938-2.165zm3.134 0c0-1.047-.412-1.66-1.136-1.66-.726 0-1.135.613-1.135 1.66 0 1.055.41 1.662 1.135 1.662.724 0 1.136-.611 1.136-1.662zM93.302 16.637c0-.87.64-1.372 1.778-1.444l1.296-.075V14.7c0-.51-.334-.799-.98-.799-.526 0-.891.196-.996.538h-.913c.096-.83.869-1.363 1.953-1.363 1.199 0 1.875.603 1.875 1.624v3.304h-.908v-.68h-.075a1.604 1.604 0 0 1-1.436.76c-.406.043-.81-.09-1.115-.366a1.468 1.468 0 0 1-.479-1.081zm3.074-.413v-.405l-1.168.076c-.658.044-.957.27-.957.697 0 .435.373.689.886.689.304.03.608-.064.841-.263.233-.2.377-.486.398-.794zM98.318 15.51c0-1.576.698-2.575 1.784-2.575.548-.03 1.062.311 1.318.875h.063V11.07h.848v6.94h-.812v-.79h-.067c-.276.56-.796.895-1.35.872-1.093 0-1.784-1-1.784-2.58zm.876 0c0 1.06.43 1.696 1.149 1.696.714 0 1.156-.646 1.156-1.691 0-1.04-.446-1.696-1.156-1.696-.714 0-1.149.642-1.149 1.692zM106.354 15.581c-.073-.865.291-1.703.939-2.162a1.799 1.799 0 0 1 2.116 0c.647.459 1.011 1.297.939 2.162.074.867-.29 1.707-.938 2.166a1.8 1.8 0 0 1-2.118 0c-.649-.46-1.012-1.299-.938-2.166zm3.134 0c0-1.046-.412-1.659-1.136-1.659-.726 0-1.135.613-1.135 1.66 0 1.055.409 1.662 1.135 1.662.724 0 1.136-.611 1.136-1.663zM112.364 13.175h.894v.781h.07c.24-.575.804-.926 1.403-.876.464-.036.919.15 1.236.506.317.355.461.842.393 1.323v3.183h-.928v-2.94c0-.79-.33-1.182-1.016-1.182a1.056 1.056 0 0 0-.836.353 1.16 1.16 0 0 0-.288.893v2.876h-.928v-4.917zM121.258 12.072v1.217h1.138v.797h-1.138v2.468c0 .502.227.722.743.722.132 0 .264-.007.395-.021v.788c-.186.03-.375.047-.564.049-1.153 0-1.612-.37-1.612-1.296v-2.71h-.833v-.797h.833v-1.217h1.038zM123.4 11.069h.909v2.783h.072c.25-.595.817-.957 1.417-.904.456-.027.899.168 1.208.532.31.364.454.86.393 1.35v3.262h-.918v-3.015c0-.807-.346-1.216-.994-1.216a1.038 1.038 0 0 0-.86.345c-.225.247-.339.59-.31.936v2.95h-.917v-7.023zM132.376 16.686c-.243.91-1.047 1.496-1.908 1.394a1.924 1.924 0 0 1-1.543-.728 2.33 2.33 0 0 1-.49-1.759c-.079-.638.1-1.283.49-1.766.39-.483.951-.757 1.54-.751 1.225 0 1.964.916 1.964 2.429v.332h-3.11v.053a1.35 1.35 0 0 0 .308.974c.223.263.537.41.865.406.425.056.84-.175 1.048-.584h.836zm-3.056-1.553h2.224a1.23 1.23 0 0 0-.29-.887 1.019 1.019 0 0 0-.794-.361 1.078 1.078 0 0 0-.81.361 1.295 1.295 0 0 0-.33.887z"/>
        </g>
    </g>
</svg>
